<?xml version="1.0" encoding="utf-8"?>
<!-- Generator: Adobe Illustrator 25.0.0, SVG Export Plug-In . SVG Version: 6.00 Build 0)  -->
<svg version="1.1" id="Camada_1" xmlns="http://www.w3.org/2000/svg" xmlns:xlink="http://www.w3.org/1999/xlink" x="0px" y="0px"
	 viewBox="0 0 119.3 86.7" style="enable-background:new 0 0 119.3 86.7;" xml:space="preserve">
<style type="text/css">
	.st0{fill:#FFFFFF;}
</style>
<g>
	<g>
		<g>
			<path class="st0" d="M75.9,54.2c-14.4,0-43.4,7.2-43.4,21.7v10.8h86.7V75.9C119.3,61.4,90.3,54.2,75.9,54.2z"/>
			<path class="st0" d="M75.9,43.4c12,0,21.7-9.7,21.7-21.7C97.6,9.7,87.9,0,75.9,0S54.2,9.7,54.2,21.7
				C54.2,33.6,63.9,43.4,75.9,43.4z"/>
			<polygon class="st0" points="43.4,32.5 27.1,32.5 27.1,16.3 16.3,16.3 16.3,32.5 0,32.5 0,43.4 16.3,43.4 16.3,59.6 27.1,59.6 
				27.1,43.4 43.4,43.4 			"/>
		</g>
	</g>
</g>
</svg>
