<?xml version="1.0" encoding="utf-8"?>
<!-- Generator: Adobe Illustrator 25.0.0, SVG Export Plug-In . SVG Version: 6.00 Build 0)  -->
<svg version="1.1" id="Camada_1" xmlns="http://www.w3.org/2000/svg" xmlns:xlink="http://www.w3.org/1999/xlink" x="0px" y="0px"
	 viewBox="0 0 145.2 132.6" style="enable-background:new 0 0 145.2 132.6;" xml:space="preserve">
<style type="text/css">
	.st0{fill:#FFFFFF;}
</style>
<path class="st0" d="M143.7,58.2l-67.5-57c-2-1.7-5.3-1.7-7.3,0l-67.5,57c-1.9,1.6-2,4.1-0.4,5.8c0.2,0.2,0.5,0.4,0.9,0.4h14.2
	c0.6,0,1.2,0.4,1.2,1l0,0v62.4c0,2.7,2.6,4.9,5.8,4.9h33h6.1c0.6,0,1.1-0.4,1.1-1V92.9c0-2.5,2.4-4.5,5.4-4.5h7.5c3,0,5.4,2,5.4,4.5
	v38.8c0,0.5,0.5,1,1.1,1h39.2c3.2,0,5.8-2.2,5.8-4.9V65.4l0,0c0-0.5,0.5-1,1.2-1h14.2c0.3,0,0.7-0.1,0.9-0.4
	C145.7,62.3,145.6,59.8,143.7,58.2z"/>
</svg>
