<?xml version="1.0" encoding="utf-8"?>
<!-- Generator: Adobe Illustrator 25.0.0, SVG Export Plug-In . SVG Version: 6.00 Build 0)  -->
<svg version="1.1" id="Camada_1" xmlns="http://www.w3.org/2000/svg" xmlns:xlink="http://www.w3.org/1999/xlink" x="0px" y="0px"
	 viewBox="0 0 138.8 140.8" style="enable-background:new 0 0 138.8 140.8;" xml:space="preserve">
<style type="text/css">
	.st0{fill:#FFFFFF;}
</style>
<path class="st0" d="M130.9,55.9h2.6c2.9,0,5.3-2.4,5.3-5.3V5.3c0-2.9-2.4-5.3-5.3-5.3H88.2c-2.9,0-5.3,2.4-5.3,5.3v2.6
	c0,2.9,2.4,5.3,5.3,5.3h26.9L69.4,59.5L23.8,13.2h26.9c2.9,0,5.3-2.4,5.3-5.3V5.3c0-2.9-2.4-5.3-5.3-5.3H5.3C2.4,0,0,2.4,0,5.3v45.4
	c0,2.9,2.4,5.3,5.3,5.3h2.6c2.9,0,5.3-2.4,5.3-5.3V24l45.6,46.3l-45.6,46.3V90c0-2.9-2.4-5.3-5.3-5.3H5.3C2.4,84.7,0,87.1,0,90v45.4
	c0,2.9,2.4,5.3,5.3,5.3h45.4c2.9,0,5.3-2.4,5.3-5.3v-2.6c0-2.9-2.4-5.3-5.3-5.3H23.8l45.7-46.3l45.7,46.3H88.2
	c-2.9,0-5.3,2.4-5.3,5.3v2.6c0,2.9,2.4,5.3,5.3,5.3h45.4c2.9,0,5.3-2.4,5.3-5.3V90c0-2.9-2.4-5.3-5.3-5.3h-2.6
	c-2.9,0-5.3,2.4-5.3,5.3v26.6L80.1,70.3L125.7,24v26.6C125.7,53.5,128,55.9,130.9,55.9z"/>
</svg>
