<?xml version="1.0" encoding="utf-8"?>
<!-- Generator: Adobe Illustrator 25.0.0, SVG Export Plug-In . SVG Version: 6.00 Build 0)  -->
<svg version="1.1" id="Camada_1" xmlns="http://www.w3.org/2000/svg" xmlns:xlink="http://www.w3.org/1999/xlink" x="0px" y="0px"
	 viewBox="0 0 134.5 141.7" style="enable-background:new 0 0 134.5 141.7;" xml:space="preserve">
<style type="text/css">
	.st0{fill:#FFFFFF;}
</style>
<path class="st0" d="M127.4,14.1H95.1V4.3c0-2.4-1.9-4.3-4.3-4.3h-3.6c-2.4,0-4.3,1.9-4.3,4.3v9.8H51.6V4.3c0-2.4-1.9-4.3-4.3-4.3
	h-3.6c-2.4,0-4.3,1.9-4.3,4.3v9.8H7.1c-3.9,0-7.1,3.2-7.1,7.1v113.4c0,3.9,3.2,7.1,7.1,7.1h120.3c3.9,0,7.1-3.2,7.1-7.1V21.2
	C134.5,17.3,131.3,14.1,127.4,14.1z M44,106.4H28.5V90.9H44V106.4z M44,79.9H28.5V64.4H44V79.9z M44,53.4H28.5V37.9H44V53.4z
	 M75,106.4H59.5V90.9H75V106.4z M75,79.9H59.5V64.4H75V79.9z M75,53.4H59.5V37.9H75V53.4z M106,106.4H90.5V90.9H106V106.4z
	 M106,79.9H90.5V64.4H106V79.9z M106,53.4H90.5V37.9H106V53.4z"/>
</svg>
