<?xml version="1.0" encoding="utf-8"?>
<!-- Generator: Adobe Illustrator 25.0.0, SVG Export Plug-In . SVG Version: 6.00 Build 0)  -->
<svg version="1.1" id="Camada_1" xmlns="http://www.w3.org/2000/svg" xmlns:xlink="http://www.w3.org/1999/xlink" x="0px" y="0px"
	 viewBox="0 0 119.3 119.4" style="enable-background:new 0 0 119.3 119.4;" xml:space="preserve">
<style type="text/css">
	.st0{fill:#FFFFFF;}
</style>
<g>
	<g>
		<g>
			<path class="st0" d="M90.7,20.4c0-2.8-1.1-5.4-3.1-7.4l-9.9-9.9c-2-2-4.7-3.1-7.5-3.1h-0.6v21h21L90.7,20.4L90.7,20.4z"/>
		</g>
	</g>
	<g>
		<g>
			<path class="st0" d="M63.8,72.1c0.7-2,1.8-3.9,3.4-5.5l23.6-23.6V27.9H66.2c-1.9,0-3.4-1.6-3.4-3.5V0H10.5C4.7,0,0,4.7,0,10.5
				v98.3c0,5.8,4.7,10.5,10.5,10.5h69.7c5.8,0,10.6-4.7,10.6-10.5V82.7l-3.8,3.7c-1.6,1.5-3.4,2.7-5.4,3.3l-11.1,3.7l-1.7,0.1
				c-2.8,0-5.4-1.4-7.1-3.6c-1.6-2.3-2.1-5.2-1.2-7.9L63.8,72.1z M17.5,62.9h34.8c1.9,0,3.5,1.6,3.5,3.5c0,1.9-1.6,3.5-3.5,3.5H17.5
				c-1.9,0-3.5-1.6-3.5-3.5C14,64.4,15.5,62.9,17.5,62.9z M14,52.4c0-1.9,1.6-3.5,3.5-3.5h34.8c1.9,0,3.5,1.6,3.5,3.5
				c0,1.9-1.6,3.5-3.5,3.5H17.5C15.5,55.9,14,54.3,14,52.4z M14,80.3c0-1.9,1.6-3.5,3.5-3.5h34.8c1.9,0,3.5,1.6,3.5,3.5
				c0,1.9-1.6,3.5-3.5,3.5H17.5C15.5,83.8,14,82.3,14,80.3z M66.2,97.8c1.9,0,3.5,1.6,3.5,3.5s-1.6,3.5-3.5,3.5h-21
				c-1.9,0-3.5-1.6-3.5-3.5c0-1.9,1.6-3.5,3.5-3.5H66.2z M17.5,41.9c-1.9,0-3.5-1.6-3.5-3.5c0-1.9,1.6-3.5,3.5-3.5h48.8
				c1.9,0,3.5,1.6,3.5,3.5c0,1.9-1.6,3.5-3.5,3.5H17.5z"/>
		</g>
	</g>
	<g>
		<g>
			<path class="st0" d="M70.1,75.2l-3,9.1c-0.5,1.4,0.8,2.7,2.2,2.2l9.1-3L70.1,75.2z"/>
		</g>
	</g>
	<g>
		<g>
			<path class="st0" d="M97.2,46.4l-23,23l9.9,9.9c5.2-5.2,15.3-15.3,23-23L97.2,46.4z"/>
		</g>
	</g>
	<g>
		<g>
			<path class="st0" d="M117.2,36.4c-1.2-1.2-3-1.9-5-1.9c-1.9,0-3.7,0.7-5,1.9l-5.1,5.1l9.9,9.9c2.8-2.8,4.7-4.7,5.1-5.1
				C119.9,43.6,119.9,39.1,117.2,36.4z"/>
		</g>
	</g>
	<g>
		<g>
			<g>
				<path class="st0" d="M117.2,46.3C117.2,46.3,117.2,46.3,117.2,46.3C117.2,46.3,117.2,46.3,117.2,46.3
					C117.2,46.3,117.2,46.3,117.2,46.3z"/>
				<path class="st0" d="M117.2,46.3C117.2,46.3,117.2,46.3,117.2,46.3C117.2,46.3,117.2,46.3,117.2,46.3z"/>
				<path class="st0" d="M117.2,46.3C117.2,46.2,117.2,46.2,117.2,46.3L117.2,46.3z"/>
			</g>
		</g>
	</g>
</g>
</svg>
