<?xml version="1.0" encoding="utf-8"?>
<!-- Generator: Adobe Illustrator 25.0.0, SVG Export Plug-In . SVG Version: 6.00 Build 0)  -->
<svg version="1.1" id="Camada_1" xmlns="http://www.w3.org/2000/svg" xmlns:xlink="http://www.w3.org/1999/xlink" x="0px" y="0px"
	 viewBox="0 0 137.2 116.5" style="enable-background:new 0 0 137.2 116.5;" xml:space="preserve">
<style type="text/css">
	.st0{fill:#FFFFFF;}
</style>
<path class="st0" d="M136.4,56.2L86.1,1c-1.9-2-5.3-0.7-5.3,2v26.7c0,1.7-1.4,3-3,3h-6.1C32.1,32.8,0,64.9,0,104.4v9.1
	c0,2.8,3.4,4.1,5.3,2l0.1-0.2C23.9,95.1,50,83.6,77.3,83.6h0.4c1.7,0,3,1.4,3,3v26.7c0,2.8,3.4,4.1,5.3,2l50.3-55.2
	C137.4,59.1,137.4,57.3,136.4,56.2z"/>
</svg>
