<?xml version="1.0" encoding="utf-8"?>
<!-- Generator: Adobe Illustrator 25.0.0, SVG Export Plug-In . SVG Version: 6.00 Build 0)  -->
<svg version="1.1" id="Camada_1" xmlns="http://www.w3.org/2000/svg" xmlns:xlink="http://www.w3.org/1999/xlink" x="0px" y="0px"
	 viewBox="0 0 140.8 133.8" style="enable-background:new 0 0 140.8 133.8;" xml:space="preserve">
<style type="text/css">
	.st0{fill:#FFFFFF;}
</style>
<g>
	<path class="st0" d="M134.6,0H31c-3.4,0-6.1,2.8-6.1,6.1v10.5h92.6c3.4,0,6.1,2.8,6.1,6.1V110h11c3.4,0,6.1-2.8,6.1-6.1V6.1
		C140.8,2.8,138,0,134.6,0z"/>
	<path class="st0" d="M109.8,23.8H6.1c-3.4,0-6.1,2.8-6.1,6.1v97.7c0,3.4,2.8,6.1,6.1,6.1h103.7c3.4,0,6.1-2.8,6.1-6.1V29.9
		C116,26.6,113.2,23.8,109.8,23.8z M91.2,79.9c0,2-1.6,3.6-3.6,3.6H62.7v24.8c0,2-1.6,3.6-3.6,3.6h-2.2c-2,0-3.6-1.6-3.6-3.6V83.5
		H28.4c-2,0-3.6-1.6-3.6-3.6v-2.2c0-2,1.6-3.6,3.6-3.6h24.8V49.3c0-2,1.6-3.6,3.6-3.6h2.2c2,0,3.6,1.6,3.6,3.6v24.8h24.8
		c2,0,3.6,1.6,3.6,3.6V79.9z"/>
</g>
</svg>
