<?xml version="1.0" encoding="UTF-8" standalone="no"?>
<!-- Created with Inkscape (http://www.inkscape.org/) -->

<svg
   xmlns:dc="http://purl.org/dc/elements/1.1/"
   xmlns:cc="http://creativecommons.org/ns#"
   xmlns:rdf="http://www.w3.org/1999/02/22-rdf-syntax-ns#"
   xmlns:svg="http://www.w3.org/2000/svg"
   xmlns="http://www.w3.org/2000/svg"
   xmlns:sodipodi="http://sodipodi.sourceforge.net/DTD/sodipodi-0.dtd"
   xmlns:inkscape="http://www.inkscape.org/namespaces/inkscape"
   width="16"
   height="16"
   viewBox="0 0 15.999984 16.000001"
   version="1.1"
   id="svg8"
   sodipodi:docname="logo.svg"
   inkscape:version="0.92.3 (2405546, 2018-03-11)">
  <defs
     id="defs2" />
  <sodipodi:namedview
     id="base"
     pagecolor="#ffffff"
     bordercolor="#666666"
     borderopacity="1.0"
     inkscape:pageopacity="0.0"
     inkscape:pageshadow="2"
     inkscape:zoom="22.4"
     inkscape:cx="7.13764"
     inkscape:cy="6.5046456"
     inkscape:document-units="px"
     inkscape:current-layer="layer1"
     showgrid="false"
     units="px"
     inkscape:window-width="1366"
     inkscape:window-height="705"
     inkscape:window-x="-8"
     inkscape:window-y="-8"
     inkscape:window-maximized="1" />
  <metadata
     id="metadata5">
    <rdf:RDF>
      <cc:Work
         rdf:about="">
        <dc:format>image/svg+xml</dc:format>
        <dc:type
           rdf:resource="http://purl.org/dc/dcmitype/StillImage" />
        <dc:title></dc:title>
      </cc:Work>
    </rdf:RDF>
  </metadata>
  <g
     inkscape:label="Layer 1"
     inkscape:groupmode="layer"
     id="layer1"
     transform="translate(0,-1106.5197)">
    <g
       id="g859"
       transform="matrix(0.64285717,0,0,0.64285718,2.8571399,397.54271)">
      <rect
         y="1112.0734"
         x="1.6081644"
         height="8.9507999"
         width="12.81147"
         id="rect850"
         style="opacity:1;fill:#ffffff;fill-opacity:1;stroke:none;stroke-width:8;stroke-miterlimit:4;stroke-dasharray:none;stroke-opacity:1;paint-order:normal" />
      <rect
         y="1108.234"
         x="10.334814"
         height="3.2142859"
         width="1.8303573"
         id="rect833-3"
         style="opacity:1;fill:#b3b3b3;fill-opacity:1;stroke:none;stroke-width:8;stroke-miterlimit:4;stroke-dasharray:none;stroke-opacity:1;paint-order:normal" />
      <rect
         y="1108.2563"
         x="3.7499914"
         height="3.2142856"
         width="1.8303572"
         id="rect833"
         style="opacity:1;fill:#b3b3b3;fill-opacity:1;stroke:none;stroke-width:8;stroke-miterlimit:4;stroke-dasharray:none;stroke-opacity:1;paint-order:normal" />
      <rect
         y="1112.0734"
         x="1.6081645"
         height="5.9805341"
         width="9.6374712"
         id="rect827"
         style="opacity:1;fill:#ffaaaa;fill-opacity:1;stroke:none;stroke-width:8.52635479;stroke-miterlimit:4;stroke-dasharray:none;stroke-opacity:1;paint-order:normal" />
      <rect
         y="1114.9908"
         x="7.9851174"
         height="3.0630839"
         width="3.2605188"
         id="rect831"
         style="opacity:1;fill:#ff0000;fill-opacity:1;stroke:none;stroke-width:7.44136667;stroke-miterlimit:4;stroke-dasharray:none;stroke-opacity:1;paint-order:normal" />
      <rect
         y="1111.984"
         x="9.8660631"
         height="3.0580356"
         width="4.4866071"
         id="rect829"
         style="opacity:1;fill:#ffaaaa;fill-opacity:1;stroke:none;stroke-width:8;stroke-miterlimit:4;stroke-dasharray:none;stroke-opacity:1;paint-order:normal" />
      <path
         d="m 2.0769148,1120.5197 v -2.2499 h 2.4230773 v 2.2499 z m 2.9615388,0 v -2.2499 h 2.692308 v 2.2499 z m -2.9615388,-2.7499 v -2.5002 h 2.4230773 v 2.5002 z m 2.9615388,0 v -2.5002 h 2.692308 v 2.5002 z m -2.9615388,-2.9999 v -2.2501 h 2.4230773 v 2.2501 z m 6.1923087,5.7498 v -2.2499 h 2.6923075 v 2.2499 z m -3.2307699,-5.7498 v -2.2501 h 2.692308 v 2.2501 z m 6.4615384,5.7498 v -2.2499 h 2.423077 v 2.2499 z m -3.2307685,-2.7499 v -2.5002 h 2.6923075 v 2.5002 z m -2.9615391,-6.7502 c 0,0.1333 -0.1262016,0.2495 -0.2692296,0.2495 H 4.4999921 c -0.1430282,0 -0.2692295,-0.1162 -0.2692295,-0.2495 v -2.2498 c 0,-0.1333 0.1262013,-0.2495 0.2692295,-0.2495 h 0.5384615 c 0.143028,0 0.2692295,0.1162 0.2692295,0.2495 z m 6.1923076,6.7502 v -2.5002 h 2.423077 v 2.5002 z m -3.2307685,-2.9999 v -2.2501 h 2.6923075 v 2.2501 z m 3.2307685,0 v -2.2501 h 2.423077 v 2.2501 z m 0.26923,-3.7503 c 0,0.1333 -0.1262,0.2495 -0.26923,0.2495 h -0.538461 c -0.143028,0 -0.269229,-0.1162 -0.269229,-0.2495 v -2.2498 c 0,-0.1333 0.126201,-0.2495 0.269229,-0.2495 h 0.538461 c 0.14303,0 0.26923,0.1162 0.26923,0.2495 z m 3.230769,-0.5001 c 0,-0.5467 -0.48798,-0.9996 -1.076923,-0.9996 h -1.076923 v -0.7501 c 0,-0.6878 -0.605768,-1.2501 -1.346153,-1.2501 h -0.538461 c -0.740385,0 -1.3461542,0.5623 -1.3461542,1.2501 v 0.7501 H 6.3846074 v -0.7501 c 0,-0.6878 -0.6057695,-1.2501 -1.3461538,-1.2501 H 4.4999921 c -0.7403844,0 -1.3461537,0.5623 -1.3461537,1.2501 v 0.7501 H 2.0769148 c -0.588942,0 -1.07692305,0.4529 -1.07692305,0.9996 v 10.0002 c 0,0.5468 0.48798105,1 1.07692305,1 H 13.923069 c 0.588943,0 1.076923,-0.4532 1.076923,-1 z"
         style="font-style:normal;font-weight:normal;font-size:medium;line-height:1.25;font-family:sans-serif;letter-spacing:0px;word-spacing:0px;fill:#000000;fill-opacity:1;stroke:none;stroke-width:0.77831089"
         id="path823"
         inkscape:connector-curvature="0" />
    </g>
  </g>
</svg>
